<mxfile host="app.diagrams.net" agent="Mozilla/5.0 (Windows NT 10.0; Win64; x64) AppleWebKit/537.36 (KHTML, like Gecko) Chrome/129.0.0.0 Safari/537.36" version="24.7.6">
  <diagram name="第 1 页" id="dlUdYlki8sdwUzjmtrw5">
    <mxGraphModel dx="1434" dy="772" grid="1" gridSize="10" guides="1" tooltips="1" connect="1" arrows="1" fold="1" page="1" pageScale="1" pageWidth="827" pageHeight="1169" math="0" shadow="0">
      <root>
        <mxCell id="0" />
        <mxCell id="1" parent="0" />
        <mxCell id="0JDfkGNsTHuIOR1T4BBq-3" value="" style="edgeStyle=orthogonalEdgeStyle;rounded=0;orthogonalLoop=1;jettySize=auto;html=1;" edge="1" parent="1" source="0JDfkGNsTHuIOR1T4BBq-1" target="0JDfkGNsTHuIOR1T4BBq-2">
          <mxGeometry relative="1" as="geometry" />
        </mxCell>
        <mxCell id="0JDfkGNsTHuIOR1T4BBq-1" value="农e采app" style="rounded=0;whiteSpace=wrap;html=1;" vertex="1" parent="1">
          <mxGeometry x="330" y="20" width="100" height="50" as="geometry" />
        </mxCell>
        <mxCell id="0JDfkGNsTHuIOR1T4BBq-5" value="" style="edgeStyle=orthogonalEdgeStyle;rounded=0;orthogonalLoop=1;jettySize=auto;html=1;" edge="1" parent="1" source="0JDfkGNsTHuIOR1T4BBq-2" target="0JDfkGNsTHuIOR1T4BBq-4">
          <mxGeometry relative="1" as="geometry" />
        </mxCell>
        <mxCell id="0JDfkGNsTHuIOR1T4BBq-2" value="ai平台" style="whiteSpace=wrap;html=1;rounded=0;" vertex="1" parent="1">
          <mxGeometry x="320" y="145" width="120" height="60" as="geometry" />
        </mxCell>
        <mxCell id="0JDfkGNsTHuIOR1T4BBq-7" value="" style="edgeStyle=orthogonalEdgeStyle;rounded=0;orthogonalLoop=1;jettySize=auto;html=1;" edge="1" parent="1" source="0JDfkGNsTHuIOR1T4BBq-4" target="0JDfkGNsTHuIOR1T4BBq-6">
          <mxGeometry relative="1" as="geometry" />
        </mxCell>
        <mxCell id="0JDfkGNsTHuIOR1T4BBq-9" value="" style="edgeStyle=orthogonalEdgeStyle;rounded=0;orthogonalLoop=1;jettySize=auto;html=1;" edge="1" parent="1" source="0JDfkGNsTHuIOR1T4BBq-4" target="0JDfkGNsTHuIOR1T4BBq-8">
          <mxGeometry relative="1" as="geometry" />
        </mxCell>
        <mxCell id="0JDfkGNsTHuIOR1T4BBq-4" value="算法识别牛接口" style="whiteSpace=wrap;html=1;rounded=0;" vertex="1" parent="1">
          <mxGeometry x="320" y="285" width="120" height="65" as="geometry" />
        </mxCell>
        <mxCell id="0JDfkGNsTHuIOR1T4BBq-6" value="走审核" style="whiteSpace=wrap;html=1;rounded=0;" vertex="1" parent="1">
          <mxGeometry x="320" y="432.5" width="120" height="60" as="geometry" />
        </mxCell>
        <mxCell id="0JDfkGNsTHuIOR1T4BBq-11" value="" style="edgeStyle=orthogonalEdgeStyle;rounded=0;orthogonalLoop=1;jettySize=auto;html=1;" edge="1" parent="1" source="0JDfkGNsTHuIOR1T4BBq-8" target="0JDfkGNsTHuIOR1T4BBq-10">
          <mxGeometry relative="1" as="geometry" />
        </mxCell>
        <mxCell id="0JDfkGNsTHuIOR1T4BBq-8" value="不走审核，直接处理" style="whiteSpace=wrap;html=1;rounded=0;" vertex="1" parent="1">
          <mxGeometry x="120" y="285" width="120" height="65" as="geometry" />
        </mxCell>
        <mxCell id="0JDfkGNsTHuIOR1T4BBq-12" value="" style="edgeStyle=orthogonalEdgeStyle;rounded=0;orthogonalLoop=1;jettySize=auto;html=1;" edge="1" parent="1" source="0JDfkGNsTHuIOR1T4BBq-10" target="0JDfkGNsTHuIOR1T4BBq-2">
          <mxGeometry relative="1" as="geometry" />
        </mxCell>
        <mxCell id="0JDfkGNsTHuIOR1T4BBq-10" value="直接把结果返回平台" style="whiteSpace=wrap;html=1;rounded=0;" vertex="1" parent="1">
          <mxGeometry x="120" y="140" width="120" height="65" as="geometry" />
        </mxCell>
      </root>
    </mxGraphModel>
  </diagram>
</mxfile>
